<svg width="1748" height="260" viewBox="0 0 1748 260" fill="none" xmlns="http://www.w3.org/2000/svg">
<path d="M230.597 0.399902V195.096C230.597 214.747 226.594 229.668 218.587 239.858C210.581 250.048 197.723 255.142 180.012 255.142H143.984L69.0171 81.5536V255.142H20.98V0.399902H78.8429L171.278 211.472H172.006C176.13 211.472 178.92 209.774 180.376 206.377C181.832 202.738 182.56 196.309 182.56 187.09V0.399902H230.597Z" fill="white"/>
<path d="M367.202 255.142C334.935 255.142 311.766 248.349 297.694 234.763C283.623 221.177 276.587 201.525 276.587 175.808V79.734C276.587 54.0171 283.623 34.3656 297.694 20.7793C311.766 7.19303 334.935 0.399902 367.202 0.399902H452.359V40.4309H367.202C353.859 40.4309 343.912 43.5848 337.361 49.8927C331.053 56.2006 327.899 66.1477 327.899 79.734V107.756H436.347V147.787H327.899V175.808C327.899 189.152 331.053 199.099 337.361 205.65C343.912 211.957 353.859 215.111 367.202 215.111H453.087V255.142H367.202Z" fill="white"/>
<path d="M608.204 131.046L685.355 255.142H627.128L575.088 171.077L523.047 255.142H465.912L546.702 125.224L469.551 0.399902H527.414L579.818 85.1928L632.223 0.399902H688.994L608.204 131.046Z" fill="white"/>
<path d="M773.161 40.4309H696.375V0.399902H901.26V40.4309H824.474V255.142H773.161V40.4309Z" fill="white"/>
<path d="M1132.64 259.509C1122.7 259.509 1114.33 257.811 1107.53 254.415C1100.98 251.018 1095.16 245.317 1090.07 237.31C1085.21 229.062 1080.72 217.78 1076.6 203.466L1017.65 0.399902H1068.96L1124.64 202.738C1126.34 209.046 1129 212.2 1132.64 212.2C1136.28 212.2 1138.95 209.046 1140.65 202.738L1196.33 0.399902H1247.64L1188.69 203.466C1184.56 217.78 1179.95 229.062 1174.86 237.31C1170.01 245.317 1164.18 251.018 1157.39 254.415C1150.84 257.811 1142.59 259.509 1132.64 259.509Z" fill="white"/>
<path d="M1285.81 0.399902H1388.8C1419.85 0.399902 1442.78 7.07173 1457.58 20.4154C1472.38 33.5164 1479.78 53.8958 1479.78 81.5536C1479.78 109.211 1472.38 129.712 1457.58 143.056C1442.78 156.157 1419.85 162.707 1388.8 162.707H1337.12V255.142H1285.81V0.399902ZM1390.25 122.676C1401.41 122.676 1410.51 119.28 1417.55 112.487C1424.82 105.693 1428.46 95.3825 1428.46 81.5536C1428.46 67.7247 1424.82 57.4137 1417.55 50.6206C1410.51 43.8274 1401.41 40.4309 1390.25 40.4309H1337.12V122.676H1390.25Z" fill="white"/>
<path d="M1727.49 0.399902V195.096C1727.49 214.747 1723.49 229.668 1715.48 239.858C1707.48 250.048 1694.62 255.142 1676.91 255.142H1640.88L1565.91 81.5536V255.142H1517.88V0.399902H1575.74L1668.17 211.472H1668.9C1673.03 211.472 1675.82 209.774 1677.27 206.377C1678.73 202.738 1679.46 196.309 1679.46 187.09V0.399902H1727.49Z" fill="white"/>
</svg>
